<svg width="19" height="22" viewBox="0 0 19 22" fill="none" xmlns="http://www.w3.org/2000/svg">
<path fill-rule="evenodd" clip-rule="evenodd" d="M16.7119 11.1632L17.8666 13.1421C18.2856 13.8684 18.3674 14.7316 18.0812 15.521C17.7951 16.3 17.1922 16.9105 16.4053 17.1842C15.3017 17.5631 14.1674 17.8579 13.0228 18.0474L13.0227 18.0474C12.9103 18.0684 12.798 18.0895 12.6856 18.1C12.5017 18.1316 12.3178 18.1526 12.1339 18.1737L12.1338 18.1737C11.909 18.2052 11.674 18.2263 11.439 18.2473L11.4389 18.2474C10.8053 18.3105 10.1615 18.3421 9.5177 18.3421C8.86368 18.3421 8.20966 18.3105 7.56586 18.2474C7.28995 18.2263 7.02425 18.1947 6.75856 18.1526C6.60527 18.1316 6.45199 18.1105 6.30892 18.0895C6.25272 18.0789 6.19651 18.071 6.14031 18.0631C6.0841 18.0553 6.0279 18.0474 5.97169 18.0368C4.83738 17.8368 3.72351 17.5631 2.61985 17.1842C1.80233 16.9105 1.17897 16.3 0.903054 15.5316C0.62714 14.7737 0.72933 13.9 1.16875 13.1316L2.3235 11.1526C2.56876 10.721 2.79357 9.88947 2.79357 9.3842V7.42631C2.79357 3.60526 5.80819 0.510526 9.5177 0.5C13.217 0.5 16.2316 3.60526 16.2316 7.42631V9.39473C16.2316 9.89999 16.4564 10.7316 16.7119 11.1632ZM9.48704 9.66842C9.91624 9.66842 10.2637 9.31052 10.2637 8.86842V5.60526C10.2637 5.16316 9.91624 4.80526 9.48704 4.80526C9.05784 4.80526 8.71039 5.16316 8.71039 5.60526V8.86842C8.71039 9.31052 9.05784 9.66842 9.48704 9.66842ZM9.49895 21.4998C10.8274 21.4998 11.9617 20.6261 12.3909 19.4051C12.2172 19.4261 12.0537 19.4472 11.8902 19.4682C11.7522 19.4895 11.6095 19.5013 11.4653 19.5131C11.396 19.5188 11.3263 19.5245 11.2566 19.5314C10.6844 19.584 10.1019 19.6156 9.51939 19.6156C8.92669 19.6156 8.33398 19.584 7.7515 19.5314C7.50624 19.5103 7.26099 19.4787 7.02595 19.4472C6.9587 19.4373 6.89371 19.4297 6.82992 19.4223C6.75799 19.4139 6.68759 19.4057 6.61719 19.3945C6.76025 19.8261 7.00551 20.2472 7.33252 20.563C7.89457 21.163 8.69165 21.4998 9.49895 21.4998Z" fill="#554AF0"/>
</svg>
