<svg width="40" height="40" viewBox="0 0 40 40" fill="none" xmlns="http://www.w3.org/2000/svg">
<path d="M20 0C8.97164 0 0 8.97164 0 20C0 31.0284 8.97164 40 20 40C31.0284 40 40 31.0284 40 20C40 8.97164 31.0284 0 20 0ZM26.1784 21.1784L17.845 29.5116C17.6904 29.6666 17.5067 29.7895 17.3045 29.8734C17.1023 29.9572 16.8855 30.0002 16.6666 30C16.4477 30.0002 16.231 29.9572 16.0288 29.8733C15.8265 29.7895 15.6429 29.6666 15.4883 29.5116C14.8366 28.86 14.8366 27.8066 15.4883 27.155L22.6434 20L15.4884 12.845C14.8367 12.1934 14.8367 11.14 15.4884 10.4884C16.14 9.83672 17.1934 9.83672 17.845 10.4884L26.1784 18.8217C26.83 19.4734 26.83 20.5266 26.1784 21.1784Z" fill="#554AF0"/>
</svg>
